<?xml version="1.0" standalone="no"?>
<!DOCTYPE svg PUBLIC "-//W3C//DTD SVG 20010904//EN"
 "http://www.w3.org/TR/2001/REC-SVG-20010904/DTD/svg10.dtd">
<svg version="1.0" xmlns="http://www.w3.org/2000/svg"
 width="860.000000pt" height="900.000000pt" viewBox="0 0 860.000000 900.000000"
 preserveAspectRatio="xMidYMid meet">

<g transform="translate(0.000000,900.000000) scale(0.100000,-0.100000)"
fill="#000000" stroke="none">
<path d="M3446 6645 c-447 -64 -854 -205 -1100 -383 -72 -53 -157 -176 -251
-364 -294 -590 -505 -1425 -517 -2038 l-3 -155 47 -66 c148 -208 445 -399 803
-518 231 -76 501 -131 647 -131 82 0 86 3 227 180 l100 125 -37 11 c-20 6 -86
26 -147 44 -232 68 -494 185 -649 289 -91 61 -101 74 -101 126 0 49 22 80 74
102 47 20 80 10 178 -54 123 -80 307 -165 493 -227 376 -124 735 -174 1190
-163 402 9 717 64 1055 183 130 46 341 148 446 215 71 46 91 54 128 53 38 -1
49 -7 78 -37 73 -81 34 -143 -163 -255 -182 -103 -448 -210 -640 -257 -39 -9
-77 -21 -84 -25 -10 -6 17 -46 99 -149 62 -78 121 -146 131 -151 92 -49 618
63 930 197 248 107 424 231 564 398 90 106 90 107 83 284 -28 654 -240 1474
-528 2038 -113 221 -187 315 -303 388 -271 168 -663 292 -1102 346 -95 12
-103 11 -135 -7 -34 -20 -82 -96 -77 -123 2 -10 29 -19 83 -28 118 -19 391
-89 504 -128 223 -78 443 -184 481 -232 32 -41 23 -107 -19 -140 -9 -7 -33
-18 -54 -23 -37 -11 -46 -8 -199 65 -280 134 -577 219 -948 271 -176 24 -570
30 -757 10 -404 -43 -745 -134 -1043 -279 -154 -75 -166 -79 -210 -67 -76 20
-109 96 -70 158 17 27 50 48 173 107 224 109 486 194 752 245 61 12 120 23
132 26 22 4 23 5 6 47 -8 23 -28 55 -43 71 -35 36 -84 40 -224 21z m248 -1643
c231 -108 318 -382 195 -613 -80 -149 -262 -241 -419 -211 -182 33 -317 171
-351 357 -39 215 107 441 318 495 71 18 186 5 257 -28z m1481 22 c147 -38 259
-154 300 -309 62 -239 -83 -478 -324 -535 -192 -45 -409 87 -471 287 -101 329
176 641 495 557z"/>
</g>
</svg>
